<?xml version="1.0" standalone="no"?><?xml-stylesheet type="text/css" href="https://wps.processon.com/themes/default/wps/mind/icons/icons.css" ?><!DOCTYPE svg PUBLIC "-//W3C//DTD SVG 1.1//EN" "http://www.w3.org/Graphics/SVG/1.1/DTD/svg11.dtd"><svg id="SvgjsSvg1221" width="730.5" height="960" xmlns="http://www.w3.org/2000/svg" version="1.1" xmlns:xlink="http://www.w3.org/1999/xlink" xmlns:svgjs="http://svgjs.com/svgjs"><defs id="SvgjsDefs1222"><pattern patternUnits="userSpaceOnUse" id="pattern_mark_0" width="300" height="300"><text x="150" y="100" fill="rgba(229,229,229,0.8)" font-size="18" transform="rotate(-45, 150, 150)" style="dominant-baseline: middle; text-anchor: middle;"></text></pattern><pattern patternUnits="userSpaceOnUse" id="pattern_mark_1" width="300" height="300"><text x="150" y="200" fill="rgba(229,229,229,0.8)" font-size="18" transform="rotate(-45, 150, 150)" style="dominant-baseline: middle; text-anchor: middle;"></text></pattern><marker id="SvgjsMarker1326" markerWidth="13" markerHeight="9" refX="3.5" refY="4.5" viewBox="0 0 13 9" orient="auto" markerUnits="userSpaceOnUse" stroke-dasharray="0,0"><path id="SvgjsPath1327" d="M13,0 L0,4.5 L13,9 L13,0" fill="#323232" stroke="#323232" stroke-width="1"></path></marker><marker id="SvgjsMarker1328" markerWidth="13" markerHeight="9" refX="9.5" refY="4.5" viewBox="0 0 13 9" orient="auto" markerUnits="userSpaceOnUse" stroke-dasharray="0,0"><path id="SvgjsPath1329" d="M0,0 L13,4.5 L0,9 L0,0" fill="#323232" stroke="#323232" stroke-width="1"></path></marker><marker id="SvgjsMarker1332" markerWidth="13" markerHeight="9" refX="3.5" refY="4.5" viewBox="0 0 13 9" orient="auto" markerUnits="userSpaceOnUse" stroke-dasharray="0,0"><path id="SvgjsPath1333" d="M13,0 L0,4.5 L13,9 L13,0" fill="#323232" stroke="#323232" stroke-width="1"></path></marker><marker id="SvgjsMarker1334" markerWidth="13" markerHeight="9" refX="9.5" refY="4.5" viewBox="0 0 13 9" orient="auto" markerUnits="userSpaceOnUse" stroke-dasharray="0,0"><path id="SvgjsPath1335" d="M0,0 L13,4.5 L0,9 L0,0" fill="#323232" stroke="#323232" stroke-width="1"></path></marker><marker id="SvgjsMarker1338" markerWidth="13" markerHeight="9" refX="3.5" refY="4.5" viewBox="0 0 13 9" orient="auto" markerUnits="userSpaceOnUse" stroke-dasharray="0,0"><path id="SvgjsPath1339" d="M13,0 L0,4.5 L13,9 L13,0" fill="#323232" stroke="#323232" stroke-width="1"></path></marker><marker id="SvgjsMarker1340" markerWidth="13" markerHeight="9" refX="9.5" refY="4.5" viewBox="0 0 13 9" orient="auto" markerUnits="userSpaceOnUse" stroke-dasharray="0,0"><path id="SvgjsPath1341" d="M0,0 L13,4.5 L0,9 L0,0" fill="#323232" stroke="#323232" stroke-width="1"></path></marker><marker id="SvgjsMarker1344" markerWidth="13" markerHeight="9" refX="3.5" refY="4.5" viewBox="0 0 13 9" orient="auto" markerUnits="userSpaceOnUse" stroke-dasharray="0,0"><path id="SvgjsPath1345" d="M13,0 L0,4.5 L13,9 L13,0" fill="#323232" stroke="#323232" stroke-width="1"></path></marker><marker id="SvgjsMarker1346" markerWidth="13" markerHeight="9" refX="9.5" refY="4.5" viewBox="0 0 13 9" orient="auto" markerUnits="userSpaceOnUse" stroke-dasharray="0,0"><path id="SvgjsPath1347" d="M0,0 L13,4.5 L0,9 L0,0" fill="#323232" stroke="#323232" stroke-width="1"></path></marker><marker id="SvgjsMarker1372" markerWidth="13" markerHeight="9" refX="3.5" refY="4.5" viewBox="0 0 13 9" orient="auto" markerUnits="userSpaceOnUse" stroke-dasharray="0,0"><path id="SvgjsPath1373" d="M13,0 L0,4.5 L13,9 L13,0" fill="#7f7f7f" stroke="#7f7f7f" stroke-width="1"></path></marker><marker id="SvgjsMarker1374" markerWidth="13" markerHeight="9" refX="9.5" refY="4.5" viewBox="0 0 13 9" orient="auto" markerUnits="userSpaceOnUse" stroke-dasharray="0,0"><path id="SvgjsPath1375" d="M0,0 L13,4.5 L0,9 L0,0" fill="#7f7f7f" stroke="#7f7f7f" stroke-width="1"></path></marker><marker id="SvgjsMarker1384" markerWidth="13" markerHeight="9" refX="3.5" refY="4.5" viewBox="0 0 13 9" orient="auto" markerUnits="userSpaceOnUse" stroke-dasharray="0,0"><path id="SvgjsPath1385" d="M13,0 L0,4.5 L13,9 L13,0" fill="#323232" stroke="#323232" stroke-width="1"></path></marker><marker id="SvgjsMarker1386" markerWidth="13" markerHeight="9" refX="9.5" refY="4.5" viewBox="0 0 13 9" orient="auto" markerUnits="userSpaceOnUse" stroke-dasharray="0,0"><path id="SvgjsPath1387" d="M0,0 L13,4.5 L0,9 L0,0" fill="#323232" stroke="#323232" stroke-width="1"></path></marker><marker id="SvgjsMarker1390" markerWidth="13" markerHeight="9" refX="3.5" refY="4.5" viewBox="0 0 13 9" orient="auto" markerUnits="userSpaceOnUse" stroke-dasharray="0,0"><path id="SvgjsPath1391" d="M13,0 L0,4.5 L13,9 L13,0" fill="#323232" stroke="#323232" stroke-width="1"></path></marker><marker id="SvgjsMarker1392" markerWidth="13" markerHeight="9" refX="9.5" refY="4.5" viewBox="0 0 13 9" orient="auto" markerUnits="userSpaceOnUse" stroke-dasharray="0,0"><path id="SvgjsPath1393" d="M0,0 L13,4.5 L0,9 L0,0" fill="#323232" stroke="#323232" stroke-width="1"></path></marker><marker id="SvgjsMarker1396" markerWidth="13" markerHeight="9" refX="3.5" refY="4.5" viewBox="0 0 13 9" orient="auto" markerUnits="userSpaceOnUse" stroke-dasharray="0,0"><path id="SvgjsPath1397" d="M13,0 L0,4.5 L13,9 L13,0" fill="#323232" stroke="#323232" stroke-width="1"></path></marker><marker id="SvgjsMarker1398" markerWidth="13" markerHeight="9" refX="9.5" refY="4.5" viewBox="0 0 13 9" orient="auto" markerUnits="userSpaceOnUse" stroke-dasharray="0,0"><path id="SvgjsPath1399" d="M0,0 L13,4.5 L0,9 L0,0" fill="#323232" stroke="#323232" stroke-width="1"></path></marker><marker id="SvgjsMarker1402" markerWidth="13" markerHeight="9" refX="3.5" refY="4.5" viewBox="0 0 13 9" orient="auto" markerUnits="userSpaceOnUse" stroke-dasharray="0,0"><path id="SvgjsPath1403" d="M13,0 L0,4.5 L13,9 L13,0" fill="#323232" stroke="#323232" stroke-width="1"></path></marker><marker id="SvgjsMarker1404" markerWidth="13" markerHeight="9" refX="9.5" refY="4.5" viewBox="0 0 13 9" orient="auto" markerUnits="userSpaceOnUse" stroke-dasharray="0,0"><path id="SvgjsPath1405" d="M0,0 L13,4.5 L0,9 L0,0" fill="#323232" stroke="#323232" stroke-width="1"></path></marker><pattern patternUnits="userSpaceOnUse" id="wpspattern_mark_0" width="300" height="300"><text x="150" y="100" fill="#0000004d" font-size="18" transform="rotate(-45, 150, 150)" style="dominant-baseline: middle; text-anchor: middle;"></text></pattern></defs><rect id="svgbackgroundid" width="730.5" height="960" fill="transparent"></rect><rect id="SvgjsRect1224" width="730.5" height="960" fill="url(#pattern_mark_0)"></rect><rect id="SvgjsRect1225" width="730.5" height="960" fill="url(#pattern_mark_1)"></rect><g id="SvgjsG1226" transform="translate(25,43)"><path id="SvgjsPath1227" d="M 0 4Q 0 0 4 0L 674 0Q 678 0 678 4L 678 191Q 678 195 674 195L 4 195Q 0 195 0 191Z" stroke="rgba(33,41,48,1)" stroke-width="1.5" fill-opacity="1" fill="#a6aef3"></path><g id="SvgjsG1228"><text id="SvgjsText1229" font-family="&quot;Microsoft YaHei&quot;, 微软雅黑, Arial" text-anchor="middle" font-size="13px" width="658px" fill="#323232" font-weight="400" align="middle" lineHeight="125%" anchor="middle" family="&quot;Microsoft YaHei&quot;, 微软雅黑, Arial" size="13px" weight="400" font-style="" opacity="1" y="86.875" transform="rotate(0)"></text></g></g><g id="SvgjsG1230" transform="translate(43,84)"><path id="SvgjsPath1231" d="M 0 4Q 0 0 4 0L 130 0Q 134 0 134 4L 134 48Q 134 52 130 52L 4 52Q 0 52 0 48Z" stroke="rgba(97,97,97,1)" stroke-width="1.5" fill-opacity="1" fill="#d2d6f9"></path><g id="SvgjsG1232"><text id="SvgjsText1233" font-family="&quot;Microsoft YaHei&quot;, 微软雅黑, Arial" text-anchor="middle" font-size="13px" width="114px" fill="#616161" font-weight="700" align="middle" lineHeight="125%" anchor="middle" family="&quot;Microsoft YaHei&quot;, 微软雅黑, Arial" size="13px" weight="700" font-style="" opacity="1" y="15.375" transform="rotate(0)"><tspan id="SvgjsTspan1234" dy="16.25" x="67"><tspan id="SvgjsTspan1235" style="">登录界面</tspan></tspan></text></g></g><g id="SvgjsG1236" transform="translate(252,25)"><path id="SvgjsPath1237" d="M 0 0L 229 0L 229 73L 0 73Z" stroke="none" fill="none"></path><g id="SvgjsG1238"><text id="SvgjsText1239" font-family="&quot;Microsoft YaHei&quot;, 微软雅黑, Arial" text-anchor="middle" font-size="20px" width="229px" fill="#efeceb" font-weight="400" align="middle" lineHeight="125%" anchor="middle" family="&quot;Microsoft YaHei&quot;, 微软雅黑, Arial" size="20px" weight="400" font-style="" opacity="1" y="18.5" transform="rotate(0)"><tspan id="SvgjsTspan1240" dy="25" x="114.5"><tspan id="SvgjsTspan1241" style="font-weight: bold;">VIEW层</tspan></tspan></text></g></g><g id="SvgjsG1242" transform="translate(215,85)"><path id="SvgjsPath1243" d="M 0 4Q 0 0 4 0L 130 0Q 134 0 134 4L 134 48Q 134 52 130 52L 4 52Q 0 52 0 48Z" stroke="rgba(97,97,97,1)" stroke-width="1.5" fill-opacity="1" fill="#d2d6f9"></path><g id="SvgjsG1244"><text id="SvgjsText1245" font-family="&quot;Microsoft YaHei&quot;, 微软雅黑, Arial" text-anchor="middle" font-size="13px" width="114px" fill="#616161" font-weight="700" align="middle" lineHeight="125%" anchor="middle" family="&quot;Microsoft YaHei&quot;, 微软雅黑, Arial" size="13px" weight="700" font-style="" opacity="1" y="15.375" transform="rotate(0)"><tspan id="SvgjsTspan1246" dy="16.25" x="67"><tspan id="SvgjsTspan1247" style="">首页推荐</tspan></tspan></text></g></g><g id="SvgjsG1248" transform="translate(386,85)"><path id="SvgjsPath1249" d="M 0 4Q 0 0 4 0L 130 0Q 134 0 134 4L 134 48Q 134 52 130 52L 4 52Q 0 52 0 48Z" stroke="rgba(97,97,97,1)" stroke-width="1.5" fill-opacity="1" fill="#d2d6f9"></path><g id="SvgjsG1250"><text id="SvgjsText1251" font-family="&quot;Microsoft YaHei&quot;, 微软雅黑, Arial" text-anchor="middle" font-size="13px" width="114px" fill="#616161" font-weight="700" align="middle" lineHeight="125%" anchor="middle" family="&quot;Microsoft YaHei&quot;, 微软雅黑, Arial" size="13px" weight="700" font-style="" opacity="1" y="15.375" transform="rotate(0)"><tspan id="SvgjsTspan1252" dy="16.25" x="67"><tspan id="SvgjsTspan1253" style="">消息通知</tspan></tspan></text></g></g><g id="SvgjsG1254" transform="translate(557,85)"><path id="SvgjsPath1255" d="M 0 4Q 0 0 4 0L 130 0Q 134 0 134 4L 134 48Q 134 52 130 52L 4 52Q 0 52 0 48Z" stroke="rgba(97,97,97,1)" stroke-width="1.5" fill-opacity="1" fill="#d2d6f9"></path><g id="SvgjsG1256"><text id="SvgjsText1257" font-family="&quot;Microsoft YaHei&quot;, 微软雅黑, Arial" text-anchor="middle" font-size="13px" width="114px" fill="#616161" font-weight="700" align="middle" lineHeight="125%" anchor="middle" family="&quot;Microsoft YaHei&quot;, 微软雅黑, Arial" size="13px" weight="700" font-style="" opacity="1" y="15.375" transform="rotate(0)"><tspan id="SvgjsTspan1258" dy="16.25" x="67"><tspan id="SvgjsTspan1259" style="">书籍搜索</tspan></tspan></text></g></g><g id="SvgjsG1260" transform="translate(44,170)"><path id="SvgjsPath1261" d="M 0 4Q 0 0 4 0L 130 0Q 134 0 134 4L 134 48Q 134 52 130 52L 4 52Q 0 52 0 48Z" stroke="rgba(97,97,97,1)" stroke-width="1.5" fill-opacity="1" fill="#d2d6f9"></path><g id="SvgjsG1262"><text id="SvgjsText1263" font-family="&quot;Microsoft YaHei&quot;, 微软雅黑, Arial" text-anchor="middle" font-size="13px" width="114px" fill="#616161" font-weight="700" align="middle" lineHeight="125%" anchor="middle" family="&quot;Microsoft YaHei&quot;, 微软雅黑, Arial" size="13px" weight="700" font-style="" opacity="1" y="15.375" transform="rotate(0)"><tspan id="SvgjsTspan1264" dy="16.25" x="67"><tspan id="SvgjsTspan1265" style="">个人管理</tspan></tspan></text></g></g><g id="SvgjsG1266" transform="translate(215,170)"><path id="SvgjsPath1267" d="M 0 4Q 0 0 4 0L 130 0Q 134 0 134 4L 134 48Q 134 52 130 52L 4 52Q 0 52 0 48Z" stroke="rgba(97,97,97,1)" stroke-width="1.5" fill-opacity="1" fill="#d2d6f9"></path><g id="SvgjsG1268"><text id="SvgjsText1269" font-family="&quot;Microsoft YaHei&quot;, 微软雅黑, Arial" text-anchor="middle" font-size="13px" width="114px" fill="#616161" font-weight="700" align="middle" lineHeight="125%" anchor="middle" family="&quot;Microsoft YaHei&quot;, 微软雅黑, Arial" size="13px" weight="700" font-style="" opacity="1" y="15.375" transform="rotate(0)"><tspan id="SvgjsTspan1270" dy="16.25" x="67"><tspan id="SvgjsTspan1271" style="">书籍贩卖</tspan></tspan></text></g></g><g id="SvgjsG1272" transform="translate(386,170)"><path id="SvgjsPath1273" d="M 0 4Q 0 0 4 0L 130 0Q 134 0 134 4L 134 48Q 134 52 130 52L 4 52Q 0 52 0 48Z" stroke="rgba(97,97,97,1)" stroke-width="1.5" fill-opacity="1" fill="#d2d6f9"></path><g id="SvgjsG1274"><text id="SvgjsText1275" font-family="&quot;Microsoft YaHei&quot;, 微软雅黑, Arial" text-anchor="middle" font-size="13px" width="114px" fill="#616161" font-weight="700" align="middle" lineHeight="125%" anchor="middle" family="&quot;Microsoft YaHei&quot;, 微软雅黑, Arial" size="13px" weight="700" font-style="" opacity="1" y="15.375" transform="rotate(0)"><tspan id="SvgjsTspan1276" dy="16.25" x="67"><tspan id="SvgjsTspan1277" style="">订单查询</tspan></tspan></text></g></g><g id="SvgjsG1278" transform="translate(557,170)"><path id="SvgjsPath1279" d="M 0 4Q 0 0 4 0L 130 0Q 134 0 134 4L 134 48Q 134 52 130 52L 4 52Q 0 52 0 48Z" stroke="rgba(97,97,97,1)" stroke-width="1.5" fill-opacity="1" fill="#d2d6f9"></path><g id="SvgjsG1280"><text id="SvgjsText1281" font-family="&quot;Microsoft YaHei&quot;, 微软雅黑, Arial" text-anchor="middle" font-size="13px" width="114px" fill="#616161" font-weight="700" align="middle" lineHeight="125%" anchor="middle" family="&quot;Microsoft YaHei&quot;, 微软雅黑, Arial" size="13px" weight="700" font-style="" opacity="1" y="15.375" transform="rotate(0)"><tspan id="SvgjsTspan1282" dy="16.25" x="67"><tspan id="SvgjsTspan1283" style="">客服售后</tspan></tspan></text></g></g><g id="SvgjsG1284" transform="translate(25,391.5)"><path id="SvgjsPath1285" d="M 0 4Q 0 0 4 0L 674 0Q 678 0 678 4L 678 191Q 678 195 674 195L 4 195Q 0 195 0 191Z" stroke="rgba(33,41,48,1)" stroke-width="1.5" fill-opacity="1" fill="#a6aef3"></path><g id="SvgjsG1286"><text id="SvgjsText1287" font-family="&quot;Microsoft YaHei&quot;, 微软雅黑, Arial" text-anchor="middle" font-size="13px" width="658px" fill="#323232" font-weight="400" align="middle" lineHeight="125%" anchor="middle" family="&quot;Microsoft YaHei&quot;, 微软雅黑, Arial" size="13px" weight="400" font-style="" opacity="1" y="86.875" transform="rotate(0)"></text></g></g><g id="SvgjsG1288" transform="translate(252,390)"><path id="SvgjsPath1289" d="M 0 0L 229 0L 229 40L 0 40Z" stroke="none" fill="none"></path><g id="SvgjsG1290"><text id="SvgjsText1291" font-family="&quot;Microsoft YaHei&quot;, 微软雅黑, Arial" text-anchor="middle" font-size="20px" width="229px" fill="#efeceb" font-weight="400" align="middle" lineHeight="125%" anchor="middle" family="&quot;Microsoft YaHei&quot;, 微软雅黑, Arial" size="20px" weight="400" font-style="" opacity="1" y="2" transform="rotate(0)"><tspan id="SvgjsTspan1292" dy="25" x="114.5"><tspan id="SvgjsTspan1293" style="font-weight: bold;">Serivice层</tspan></tspan></text></g></g><g id="SvgjsG1294" transform="translate(36,427)"><path id="SvgjsPath1295" d="M 0 4Q 0 0 4 0L 320 0Q 324 0 324 4L 324 144Q 324 148 320 148L 4 148Q 0 148 0 144Z" stroke-dasharray="7.5,3" stroke="rgba(127,127,127,1)" stroke-width="1.5" fill="none"></path><g id="SvgjsG1296"><text id="SvgjsText1297" font-family="&quot;Microsoft YaHei&quot;, 微软雅黑, Arial" text-anchor="middle" font-size="13px" width="304px" fill="#323232" font-weight="400" align="middle" lineHeight="125%" anchor="middle" family="&quot;Microsoft YaHei&quot;, 微软雅黑, Arial" size="13px" weight="400" font-style="" opacity="1" y="63.375" transform="rotate(0)"></text></g></g><g id="SvgjsG1298" transform="translate(215,433.5)"><path id="SvgjsPath1299" d="M 0 4Q 0 0 4 0L 130 0Q 134 0 134 4L 134 48Q 134 52 130 52L 4 52Q 0 52 0 48Z" stroke="rgba(97,97,97,1)" stroke-width="1.5" fill-opacity="1" fill="#d2d6f9"></path><g id="SvgjsG1300"><text id="SvgjsText1301" font-family="&quot;Microsoft YaHei&quot;, 微软雅黑, Arial" text-anchor="middle" font-size="13px" width="114px" fill="#616161" font-weight="700" align="middle" lineHeight="125%" anchor="middle" family="&quot;Microsoft YaHei&quot;, 微软雅黑, Arial" size="13px" weight="700" font-style="" opacity="1" y="6.875" transform="rotate(0)"><tspan id="SvgjsTspan1302" dy="16.25" x="67"><tspan id="SvgjsTspan1303" style="">书籍推荐与搜索服</tspan></tspan><tspan id="SvgjsTspan1304" dy="16.25" x="67"><tspan id="SvgjsTspan1305" style="">务</tspan></tspan></text></g></g><g id="SvgjsG1306" transform="translate(215,515.5)"><path id="SvgjsPath1307" d="M 0 4Q 0 0 4 0L 130 0Q 134 0 134 4L 134 48Q 134 52 130 52L 4 52Q 0 52 0 48Z" stroke="rgba(97,97,97,1)" stroke-width="1.5" fill-opacity="1" fill="#d2d6f9"></path><g id="SvgjsG1308"><text id="SvgjsText1309" font-family="&quot;Microsoft YaHei&quot;, 微软雅黑, Arial" text-anchor="middle" font-size="13px" width="114px" fill="#616161" font-weight="700" align="middle" lineHeight="125%" anchor="middle" family="&quot;Microsoft YaHei&quot;, 微软雅黑, Arial" size="13px" weight="700" font-style="" opacity="1" y="15.375" transform="rotate(0)"><tspan id="SvgjsTspan1310" dy="16.25" x="67"><tspan id="SvgjsTspan1311" style="">交易服务</tspan></tspan></text></g></g><g id="SvgjsG1312" transform="translate(43,515.5)"><path id="SvgjsPath1313" d="M 0 4Q 0 0 4 0L 130 0Q 134 0 134 4L 134 48Q 134 52 130 52L 4 52Q 0 52 0 48Z" stroke="rgba(97,97,97,1)" stroke-width="1.5" fill-opacity="1" fill="#d2d6f9"></path><g id="SvgjsG1314"><text id="SvgjsText1315" font-family="&quot;Microsoft YaHei&quot;, 微软雅黑, Arial" text-anchor="middle" font-size="13px" width="114px" fill="#616161" font-weight="700" align="middle" lineHeight="125%" anchor="middle" family="&quot;Microsoft YaHei&quot;, 微软雅黑, Arial" size="13px" weight="700" font-style="" opacity="1" y="15.375" transform="rotate(0)"><tspan id="SvgjsTspan1316" dy="16.25" x="67"><tspan id="SvgjsTspan1317" style="">消息服务</tspan></tspan></text></g></g><g id="SvgjsG1318" transform="translate(25,287)"><path id="SvgjsPath1319" d="M 0 4Q 0 0 4 0L 674 0Q 678 0 678 4L 678 50Q 678 54 674 54L 4 54Q 0 54 0 50Z" stroke="rgba(217,217,217,1)" stroke-width="1.5" fill-opacity="1" fill="#d9d9d9"></path><g id="SvgjsG1320"><text id="SvgjsText1321" font-family="&quot;Microsoft YaHei&quot;, 微软雅黑, Arial" text-anchor="middle" font-size="20px" width="658px" fill="#7f7f7f" font-weight="700" align="middle" lineHeight="125%" anchor="middle" family="&quot;Microsoft YaHei&quot;, 微软雅黑, Arial" size="20px" weight="700" font-style="" opacity="1" y="9" transform="rotate(0)"><tspan id="SvgjsTspan1322" dy="25" x="339"><tspan id="SvgjsTspan1323" style="">Controller层</tspan></tspan></text></g></g><g id="SvgjsG1324"><path id="SvgjsPath1325" d="M130 284.3L130 262.5L130 262.5L130 240.7" stroke="#323232" stroke-width="1.5" fill="none" marker-start="url(#SvgjsMarker1326)" marker-end="url(#SvgjsMarker1328)"></path></g><g id="SvgjsG1330"><path id="SvgjsPath1331" d="M129 387.3L129 365.5L129 365.5L129 343.7" stroke="#323232" stroke-width="1.5" fill="none" marker-start="url(#SvgjsMarker1332)" marker-end="url(#SvgjsMarker1334)"></path></g><g id="SvgjsG1336"><path id="SvgjsPath1337" d="M565 387.3L565 365.5L565 365.5L565 343.7" stroke="#323232" stroke-width="1.5" fill="none" marker-start="url(#SvgjsMarker1338)" marker-end="url(#SvgjsMarker1340)"></path></g><g id="SvgjsG1342"><path id="SvgjsPath1343" d="M564 284.3L564 262.5L564 262.5L564 240.7" stroke="#323232" stroke-width="1.5" fill="none" marker-start="url(#SvgjsMarker1344)" marker-end="url(#SvgjsMarker1346)"></path></g><g id="SvgjsG1348" transform="translate(497,430)"><path id="SvgjsPath1349" d="M 0 4Q 0 0 4 0L 130 0Q 134 0 134 4L 134 48Q 134 52 130 52L 4 52Q 0 52 0 48Z" stroke="rgba(97,97,97,1)" stroke-width="1.5" fill-opacity="1" fill="#d2d6f9"></path><g id="SvgjsG1350"><text id="SvgjsText1351" font-family="&quot;Microsoft YaHei&quot;, 微软雅黑, Arial" text-anchor="middle" font-size="13px" width="114px" fill="#616161" font-weight="700" align="middle" lineHeight="125%" anchor="middle" family="&quot;Microsoft YaHei&quot;, 微软雅黑, Arial" size="13px" weight="700" font-style="" opacity="1" y="15.375" transform="rotate(0)"><tspan id="SvgjsTspan1352" dy="16.25" x="67"><tspan id="SvgjsTspan1353" style="">数据获取服务</tspan></tspan></text></g></g><g id="SvgjsG1354" transform="translate(497,515.5)"><path id="SvgjsPath1355" d="M 0 4Q 0 0 4 0L 130 0Q 134 0 134 4L 134 48Q 134 52 130 52L 4 52Q 0 52 0 48Z" stroke="rgba(97,97,97,1)" stroke-width="1.5" fill-opacity="1" fill="#d2d6f9"></path><g id="SvgjsG1356"><text id="SvgjsText1357" font-family="&quot;Microsoft YaHei&quot;, 微软雅黑, Arial" text-anchor="middle" font-size="13px" width="114px" fill="#616161" font-weight="700" align="middle" lineHeight="125%" anchor="middle" family="&quot;Microsoft YaHei&quot;, 微软雅黑, Arial" size="13px" weight="700" font-style="" opacity="1" y="15.375" transform="rotate(0)"><tspan id="SvgjsTspan1358" dy="16.25" x="67"><tspan id="SvgjsTspan1359" style="">数据统计服务</tspan></tspan></text></g></g><g id="SvgjsG1360" transform="translate(43,432.5)"><path id="SvgjsPath1361" d="M 0 4Q 0 0 4 0L 130 0Q 134 0 134 4L 134 48Q 134 52 130 52L 4 52Q 0 52 0 48Z" stroke="rgba(97,97,97,1)" stroke-width="1.5" fill-opacity="1" fill="#d2d6f9"></path><g id="SvgjsG1362"><text id="SvgjsText1363" font-family="&quot;Microsoft YaHei&quot;, 微软雅黑, Arial" text-anchor="middle" font-size="13px" width="114px" fill="#616161" font-weight="700" align="middle" lineHeight="125%" anchor="middle" family="&quot;Microsoft YaHei&quot;, 微软雅黑, Arial" size="13px" weight="700" font-style="" opacity="1" y="15.375" transform="rotate(0)"><tspan id="SvgjsTspan1364" dy="16.25" x="67"><tspan id="SvgjsTspan1365" style="">用户认证服务</tspan></tspan></text></g></g><g id="SvgjsG1366" transform="translate(488,427)"><path id="SvgjsPath1367" d="M 0 4Q 0 0 4 0L 148 0Q 152 0 152 4L 152 144Q 152 148 148 148L 4 148Q 0 148 0 144Z" stroke-dasharray="7.5,3" stroke="rgba(127,127,127,1)" stroke-width="1.5" fill="none"></path><g id="SvgjsG1368"><text id="SvgjsText1369" font-family="&quot;Microsoft YaHei&quot;, 微软雅黑, Arial" text-anchor="middle" font-size="13px" width="132px" fill="#323232" font-weight="400" align="middle" lineHeight="125%" anchor="middle" family="&quot;Microsoft YaHei&quot;, 微软雅黑, Arial" size="13px" weight="400" font-style="" opacity="1" y="63.375" transform="rotate(0)"></text></g></g><g id="SvgjsG1370"><path id="SvgjsPath1371" d="M485.29999999999995 501L424 501L424 501L362.70000000000005 501" stroke="#7f7f7f" stroke-width="1.5" fill="none" marker-start="url(#SvgjsMarker1372)" marker-end="url(#SvgjsMarker1374)"></path></g><g id="SvgjsG1376" transform="translate(27.5,638)"><path id="SvgjsPath1377" d="M 0 4Q 0 0 4 0L 674 0Q 678 0 678 4L 678 50Q 678 54 674 54L 4 54Q 0 54 0 50Z" stroke="rgba(217,217,217,1)" stroke-width="1.5" fill-opacity="1" fill="#d9d9d9"></path><g id="SvgjsG1378"><text id="SvgjsText1379" font-family="&quot;Microsoft YaHei&quot;, 微软雅黑, Arial" text-anchor="middle" font-size="20px" width="658px" fill="#7f7f7f" font-weight="700" align="middle" lineHeight="125%" anchor="middle" family="&quot;Microsoft YaHei&quot;, 微软雅黑, Arial" size="20px" weight="700" font-style="" opacity="1" y="9" transform="rotate(0)"><tspan id="SvgjsTspan1380" dy="25" x="339"><tspan id="SvgjsTspan1381" style="">Dao层</tspan></tspan></text></g></g><g id="SvgjsG1382"><path id="SvgjsPath1383" d="M132.5 635.3L132.5 613.5L132.5 613.5L132.5 589" stroke="#323232" stroke-width="1.5" fill="none" marker-start="url(#SvgjsMarker1384)" marker-end="url(#SvgjsMarker1386)"></path></g><g id="SvgjsG1388"><path id="SvgjsPath1389" d="M131.5 742.5L131.5 717.25L131.5 717.25L131.5 694.7" stroke="#323232" stroke-width="1.5" fill="none" marker-start="url(#SvgjsMarker1390)" marker-end="url(#SvgjsMarker1392)"></path></g><g id="SvgjsG1394"><path id="SvgjsPath1395" d="M567.5 742.5L567.5 717.25L567.5 717.25L567.5 694.7" stroke="#323232" stroke-width="1.5" fill="none" marker-start="url(#SvgjsMarker1396)" marker-end="url(#SvgjsMarker1398)"></path></g><g id="SvgjsG1400"><path id="SvgjsPath1401" d="M566.5 635.3L566.5 613.5L566.5 613.5L566.5 589" stroke="#323232" stroke-width="1.5" fill="none" marker-start="url(#SvgjsMarker1402)" marker-end="url(#SvgjsMarker1404)"></path></g><g id="SvgjsG1406" transform="translate(27.5,740)"><path id="SvgjsPath1407" d="M 0 4Q 0 0 4 0L 674 0Q 678 0 678 4L 678 191Q 678 195 674 195L 4 195Q 0 195 0 191Z" stroke="rgba(33,41,48,1)" stroke-width="1.5" fill-opacity="1" fill="#a6aef3"></path><g id="SvgjsG1408"><text id="SvgjsText1409" font-family="&quot;Microsoft YaHei&quot;, 微软雅黑, Arial" text-anchor="middle" font-size="13px" width="658px" fill="#323232" font-weight="400" align="middle" lineHeight="125%" anchor="middle" family="&quot;Microsoft YaHei&quot;, 微软雅黑, Arial" size="13px" weight="400" font-style="" opacity="1" y="86.875" transform="rotate(0)"></text></g></g><g id="SvgjsG1410" transform="translate(254.5,738.5)"><path id="SvgjsPath1411" d="M 0 0L 229 0L 229 40L 0 40Z" stroke="none" fill="none"></path><g id="SvgjsG1412"><text id="SvgjsText1413" font-family="&quot;Microsoft YaHei&quot;, 微软雅黑, Arial" text-anchor="middle" font-size="20px" width="229px" fill="#efeceb" font-weight="400" align="middle" lineHeight="125%" anchor="middle" family="&quot;Microsoft YaHei&quot;, 微软雅黑, Arial" size="20px" weight="400" font-style="" opacity="1" y="2" transform="rotate(0)"><tspan id="SvgjsTspan1414" dy="25" x="114.5"><tspan id="SvgjsTspan1415" style="font-weight: bold;">数据层</tspan></tspan></text></g></g><g id="SvgjsG1416" transform="translate(85.33333333333331,795)"><path id="SvgjsPath1417" d="M 0 15.278L 0 87.778C 0 107.222 91.667 107.222 91.667 87.778L 91.667 15.278C 91.667 -4.167 0 -4.167 0 15.278ZM 0 15.278C 0 34.375 91.667 34.375 91.667 15.278C 91.667 34.375 0 34.375 0 15.278" stroke="rgba(127,127,127,1)" stroke-width="3" fill-opacity="1" fill="#d2d6f9"></path><g id="SvgjsG1418"><text id="SvgjsText1419" font-family="&quot;Microsoft YaHei&quot;, 微软雅黑, Arial" text-anchor="middle" font-size="13px" width="92px" fill="#7f7f7f" font-weight="700" align="middle" lineHeight="125%" anchor="middle" family="&quot;Microsoft YaHei&quot;, 微软雅黑, Arial" size="13px" weight="700" font-style="" opacity="1" y="30.597" transform="rotate(0)"><tspan id="SvgjsTspan1420" dy="16.25" x="46"><tspan id="SvgjsTspan1421" style="">MongoDB</tspan></tspan></text></g></g><g id="SvgjsG1422" transform="translate(230.33333333333337,795)"><path id="SvgjsPath1423" d="M 0 15.278L 0 87.778C 0 107.222 91.667 107.222 91.667 87.778L 91.667 15.278C 91.667 -4.167 0 -4.167 0 15.278ZM 0 15.278C 0 34.375 91.667 34.375 91.667 15.278C 91.667 34.375 0 34.375 0 15.278" stroke="rgba(127,127,127,1)" stroke-width="3" fill-opacity="1" fill="#d2d6f9"></path><g id="SvgjsG1424"><text id="SvgjsText1425" font-family="&quot;Microsoft YaHei&quot;, 微软雅黑, Arial" text-anchor="middle" font-size="13px" width="92px" fill="#7f7f7f" font-weight="700" align="middle" lineHeight="125%" anchor="middle" family="&quot;Microsoft YaHei&quot;, 微软雅黑, Arial" size="13px" weight="700" font-style="" opacity="1" y="30.597" transform="rotate(0)"><tspan id="SvgjsTspan1426" dy="16.25" x="46"><tspan id="SvgjsTspan1427" style="">Mysql</tspan></tspan></text></g></g><g id="SvgjsG1428" transform="translate(518.1666666666666,795)"><path id="SvgjsPath1429" d="M 0 15.278L 0 87.778C 0 107.222 91.667 107.222 91.667 87.778L 91.667 15.278C 91.667 -4.167 0 -4.167 0 15.278ZM 0 15.278C 0 34.375 91.667 34.375 91.667 15.278C 91.667 34.375 0 34.375 0 15.278" stroke="rgba(127,127,127,1)" stroke-width="3" fill-opacity="1" fill="#d2d6f9"></path><g id="SvgjsG1430"><text id="SvgjsText1431" font-family="&quot;Microsoft YaHei&quot;, 微软雅黑, Arial" text-anchor="middle" font-size="13px" width="92px" fill="#7f7f7f" font-weight="700" align="middle" lineHeight="125%" anchor="middle" family="&quot;Microsoft YaHei&quot;, 微软雅黑, Arial" size="13px" weight="700" font-style="" opacity="1" y="30.597" transform="rotate(0)"><tspan id="SvgjsTspan1432" dy="16.25" x="46"><tspan id="SvgjsTspan1433" style="">Redis</tspan></tspan></text></g></g><g id="SvgjsG1434"></g><rect id="SvgjsRect1435" width="730.5" height="960" fill="url(#wpspattern_mark_0)"></rect></svg>